<svg xmlns="http://www.w3.org/2000/svg" viewBox="0 0 1200 360" font-family="'Segoe UI',Tahoma,'Noto Kufi Arabic','Cairo',sans-serif">
  <defs>
    <linearGradient id="bg" x1="0" y1="0" x2="1" y2="1">
      <stop offset="0" stop-color="#0f1117"/>
      <stop offset="0.55" stop-color="#141228"/>
      <stop offset="1" stop-color="#1a1430"/>
    </linearGradient>
    <linearGradient id="accent" x1="0" y1="0" x2="1" y2="0">
      <stop offset="0" stop-color="#6ea8fe"/>
      <stop offset="1" stop-color="#8b5cf6"/>
    </linearGradient>
    <radialGradient id="glow" cx="0.5" cy="0.4" r="0.6">
      <stop offset="0" stop-color="#6ea8fe" stop-opacity="0.16"/>
      <stop offset="1" stop-color="#6ea8fe" stop-opacity="0"/>
    </radialGradient>
  </defs>
  <rect width="1200" height="360" fill="url(#bg)"/>
  <rect width="1200" height="360" fill="url(#glow)"/>
  <!-- decorative neural net -->
  <g stroke="#2a2f3e" stroke-width="1.2" opacity="0.7">
    <line x1="90" y1="80" x2="180" y2="140"/><line x1="90" y1="80" x2="180" y2="220"/>
    <line x1="90" y1="180" x2="180" y2="140"/><line x1="90" y1="180" x2="180" y2="220"/>
    <line x1="90" y1="280" x2="180" y2="220"/><line x1="180" y1="140" x2="270" y2="180"/>
    <line x1="180" y1="220" x2="270" y2="180"/>
    <line x1="1110" y1="80" x2="1020" y2="140"/><line x1="1110" y1="80" x2="1020" y2="220"/>
    <line x1="1110" y1="180" x2="1020" y2="140"/><line x1="1110" y1="180" x2="1020" y2="220"/>
    <line x1="1110" y1="280" x2="1020" y2="220"/><line x1="1020" y1="140" x2="930" y2="180"/>
    <line x1="1020" y1="220" x2="930" y2="180"/>
  </g>
  <g fill="#6ea8fe">
    <circle cx="90" cy="80" r="6"/><circle cx="90" cy="180" r="6"/><circle cx="90" cy="280" r="6"/>
    <circle cx="180" cy="140" r="6"/><circle cx="180" cy="220" r="6"/><circle cx="270" cy="180" r="7" fill="#8b5cf6"/>
    <circle cx="1110" cy="80" r="6"/><circle cx="1110" cy="180" r="6"/><circle cx="1110" cy="280" r="6"/>
    <circle cx="1020" cy="140" r="6"/><circle cx="1020" cy="220" r="6"/><circle cx="930" cy="180" r="7" fill="#8b5cf6"/>
  </g>
  <text x="600" y="150" text-anchor="middle" direction="rtl" font-size="46" font-weight="700" fill="#ffffff">الدليل الكامل لبناء نماذج اللغة الكبيرة</text>
  <text x="600" y="200" text-anchor="middle" direction="rtl" font-size="25" fill="#c7cdda">من الصفر إلى أحدث المستويات (SOTA)</text>
  <rect x="470" y="222" width="260" height="3" rx="2" fill="url(#accent)"/>
  <text x="600" y="266" text-anchor="middle" direction="rtl" font-size="18" fill="#8aa0c0">٢٤ فصلاً · ١٢٢ ألف كلمة · ١٦٦ مثال PyTorch · بدائل ومبرّرات لكل خيار</text>
  <text x="600" y="305" text-anchor="middle" font-size="15" fill="#6b7689">Architecture · Tokenization · Data · Training · Alignment · Serving</text>
</svg>
